<svg aria-hidden="true" style="position: absolute; width: 0; height: 0; overflow: hidden;" version="1.1"
    xmlns="http://www.w3.org/2000/svg" xmlns:xlink="http://www.w3.org/1999/xlink">
    <defs>
        <symbol id="icon-Lock" viewBox="0 0 24 32">
            <path
                d="M21.333 10.667h-1.524v-3.048c0-4.206-3.413-7.619-7.619-7.619s-7.619 3.413-7.619 7.619v3.048h-1.524c-1.676 0-3.048 1.371-3.048 3.048v15.238c0 1.676 1.371 3.048 3.048 3.048h18.286c1.676 0 3.048-1.371 3.048-3.048v-15.238c0-1.676-1.371-3.048-3.048-3.048zM12.19 24.381c-1.676 0-3.048-1.371-3.048-3.048s1.371-3.048 3.048-3.048c1.676 0 3.048 1.371 3.048 3.048s-1.371 3.048-3.048 3.048zM16.914 10.667h-9.448v-3.048c0-2.606 2.118-4.724 4.724-4.724s4.724 2.118 4.724 4.724v3.048z">
            </path>
        </symbol>
        <symbol id="icon-Wallet" viewBox="0 0 41 32">
            <path
                d="M32.444 0h-24c-4.42 0-8 3.58-8 8v16c0 4.42 3.58 8 8 8h24c4.42 0 8-3.58 8-8v-16c0-4.42-3.58-8-8-8zM28.724 19.54c-0.48 0.4-1.14 0.56-1.76 0.4l-22.22-5.44c0.6-1.46 2.020-2.5 3.7-2.5h24c1.34 0 2.52 0.68 3.26 1.68l-6.98 5.86zM36.444 9.1c-1.18-0.68-2.54-1.1-4-1.1h-24c-1.46 0-2.82 0.42-4 1.1v-1.1c0-2.2 1.8-4 4-4h24c2.2 0 4 1.8 4 4v1.1z">
            </path>
        </symbol>
        <symbol id="icon-Email" viewBox="0 0 40 32">
            <path
                d="M36 0h-32c-2.2 0-3.98 1.8-3.98 4l-0.020 24c0 2.2 1.8 4 4 4h32c2.2 0 4-1.8 4-4v-24c0-2.2-1.8-4-4-4zM36 8l-16 10-16-10v-4l16 10 16-10v4z">
            </path>
        </symbol>
    </defs>
</svg>